<?xml version="1.0" encoding="utf-8"?>
<!-- Generator: Adobe Illustrator 23.0.1, SVG Export Plug-In . SVG Version: 6.00 Build 0)  -->
<svg version="1.1" id="Слой_1" xmlns="http://www.w3.org/2000/svg" xmlns:xlink="http://www.w3.org/1999/xlink" x="0px" y="0px"
	 viewBox="0 0 20 20" style="enable-background:new 0 0 20 20;" xml:space="preserve">
<style type="text/css">
	.st0{fill:#2F80ED;stroke:#2F80ED;stroke-width:1.5873;}
</style>
<path class="st0" d="M14.7,18.8L14.7,18.8c-0.3,0.3-0.8,0.3-1.2,0l-8.3-8.3c-0.3-0.3-0.3-0.8,0-1.2l0,0C5.6,9,6.1,9,6.4,9.4l8.3,8.3
	C15,17.9,15,18.5,14.7,18.8z"/>
<path class="st0" d="M14.8,1.2L14.8,1.2c0.3,0.3,0.3,0.8,0,1.2l-8.3,8.3c-0.3,0.3-0.8,0.3-1.2,0l0,0C5,10.3,5,9.8,5.3,9.5l8.3-8.3
	C13.9,0.9,14.3,0.9,14.8,1.2z"/>
</svg>
