<svg width="29" height="41" viewBox="0 0 29 41" fill="none" xmlns="http://www.w3.org/2000/svg">
<path fill-rule="evenodd" clip-rule="evenodd" d="M14.8188 30.5923C14.5216 30.912 14.3517 31.0879 14.3517 31.0879C14.3517 31.0879 14.1818 30.912 13.8846 30.5923C11.228 30.6315 8.77803 31.0029 6.91476 31.6191C5.93664 31.9426 5.03673 32.3606 4.35031 32.8974C3.68214 33.4198 3 34.2358 3 35.3474C3 36.459 3.68214 37.2749 4.35031 37.7974C5.03673 38.3341 5.93664 38.7522 6.91476 39.0756C8.88696 39.7279 11.5165 40.1059 14.3526 40.1059C17.1887 40.1059 19.8183 39.7279 21.7905 39.0756C22.7686 38.7522 23.6685 38.3341 24.3549 37.7974C25.0231 37.2749 25.7052 36.459 25.7052 35.3474C25.7052 34.2358 25.0231 33.4198 24.3549 32.8974C23.6685 32.3606 22.7686 31.9426 21.7905 31.6191C19.9268 31.0028 17.4761 30.6313 14.8188 30.5923ZM5.9744 35.4832C5.97409 35.4832 5.97546 35.48 5.97943 35.4736C5.97669 35.48 5.97471 35.4832 5.9744 35.4832ZM6.19823 35.2607C6.15687 35.293 6.12277 35.3219 6.09477 35.3474C6.12277 35.3728 6.15687 35.4018 6.19823 35.4341C6.50894 35.6771 7.05191 35.9612 7.85676 36.2274C9.4505 36.7545 11.7473 37.1059 14.3526 37.1059C16.958 37.1059 19.2547 36.7545 20.8485 36.2274C21.6533 35.9612 22.1963 35.6771 22.507 35.4341C22.5484 35.4018 22.5824 35.3728 22.6104 35.3474C22.5824 35.3219 22.5484 35.293 22.507 35.2607C22.1963 35.0177 21.6533 34.7336 20.8485 34.4674C19.2547 33.9403 16.958 33.5889 14.3526 33.5889C11.7473 33.5889 9.4505 33.9403 7.85676 34.4674C7.05191 34.7336 6.50894 35.0177 6.19823 35.2607ZM22.7308 35.4832C22.7305 35.4832 22.7285 35.48 22.7258 35.4736C22.7298 35.48 22.7311 35.4832 22.7308 35.4832ZM22.7258 35.2212C22.7285 35.2147 22.7305 35.2116 22.7308 35.2116C22.7311 35.2116 22.7298 35.2148 22.7258 35.2212ZM5.97943 35.2212C5.97546 35.2148 5.97409 35.2116 5.9744 35.2116C5.97471 35.2116 5.97669 35.2147 5.97943 35.2212Z" fill="#2F80ED"/>
<mask id="path-2-outside-1" maskUnits="userSpaceOnUse" x="0.5" y="0" width="28" height="36" fill="black">
<rect fill="white" x="0.5" width="28" height="36"/>
<path fill-rule="evenodd" clip-rule="evenodd" d="M14.3527 31.0893C14.3527 31.0893 25.2054 19.8465 25.2054 13.8527C25.2054 7.85891 20.3464 3 14.3527 3C8.35891 3 3.5 7.85891 3.5 13.8527C3.5 19.8465 14.3527 31.0893 14.3527 31.0893ZM14.3527 19.0416C17.2184 19.0416 19.5416 16.7184 19.5416 13.8527C19.5416 10.9869 17.2184 8.66377 14.3527 8.66377C11.4869 8.66377 9.16377 10.9869 9.16377 13.8527C9.16377 16.7184 11.4869 19.0416 14.3527 19.0416Z"/>
</mask>
<path d="M14.3527 31.0893L12.1942 33.1728L14.3527 35.4089L16.5111 33.1728L14.3527 31.0893ZM22.2054 13.8527C22.2054 14.5828 21.8268 15.865 20.8659 17.6565C19.953 19.3585 18.7002 21.185 17.393 22.9002C16.0943 24.6042 14.7884 26.1379 13.8036 27.2488C13.3125 27.8027 12.9048 28.2476 12.6221 28.5516C12.4808 28.7035 12.371 28.82 12.2979 28.8971C12.2613 28.9356 12.234 28.9643 12.2165 28.9826C12.2077 28.9917 12.2014 28.9983 12.1977 29.0021C12.1958 29.0041 12.1946 29.0054 12.194 29.006C12.1937 29.0063 12.1936 29.0064 12.1936 29.0064C12.1937 29.0063 12.1938 29.0062 12.1938 29.0062C12.194 29.006 12.1942 29.0058 14.3527 31.0893C16.5111 33.1728 16.5114 33.1725 16.5118 33.1721C16.512 33.172 16.5124 33.1715 16.5127 33.1712C16.5134 33.1705 16.5143 33.1696 16.5153 33.1685C16.5173 33.1664 16.52 33.1636 16.5234 33.1601C16.5301 33.1531 16.5394 33.1435 16.5511 33.1311C16.5747 33.1065 16.6083 33.0713 16.6513 33.026C16.7371 32.9355 16.8605 32.8046 17.0159 32.6374C17.3267 32.3032 17.7668 31.8229 18.2933 31.2291C19.3433 30.0447 20.7506 28.393 22.165 26.5371C23.571 24.6923 25.0314 22.5844 26.1533 20.4925C27.2273 18.4902 28.2054 16.1195 28.2054 13.8527H22.2054ZM14.3527 6C18.6896 6 22.2054 9.51576 22.2054 13.8527H28.2054C28.2054 6.20206 22.0033 0 14.3527 0V6ZM6.5 13.8527C6.5 9.51576 10.0158 6 14.3527 6V0C6.70206 0 0.5 6.20206 0.5 13.8527H6.5ZM14.3527 31.0893C16.5111 29.0058 16.5114 29.006 16.5115 29.0062C16.5115 29.0062 16.5117 29.0063 16.5117 29.0064C16.5117 29.0064 16.5116 29.0063 16.5113 29.006C16.5107 29.0054 16.5095 29.0041 16.5076 29.0021C16.5039 28.9983 16.4976 28.9917 16.4889 28.9826C16.4714 28.9643 16.444 28.9356 16.4075 28.8971C16.3344 28.82 16.2246 28.7035 16.0833 28.5516C15.8006 28.2476 15.3928 27.8027 14.9018 27.2488C13.9169 26.1379 12.6111 24.6042 11.3124 22.9002C10.0052 21.185 8.75233 19.3585 7.83945 17.6565C6.87855 15.865 6.5 14.5828 6.5 13.8527H0.5C0.5 16.1195 1.47803 18.4902 2.55202 20.4925C3.67401 22.5844 5.13432 24.6923 6.54032 26.5371C7.95478 28.393 9.36208 30.0447 10.4121 31.2291C10.9385 31.8229 11.3786 32.3032 11.6894 32.6374C11.8449 32.8046 11.9682 32.9355 12.0541 33.026C12.0971 33.0713 12.1306 33.1065 12.1542 33.1311C12.166 33.1435 12.1753 33.1531 12.182 33.1601C12.1853 33.1636 12.188 33.1664 12.1901 33.1685C12.1911 33.1696 12.192 33.1705 12.1927 33.1712C12.193 33.1715 12.1934 33.172 12.1936 33.1721C12.1939 33.1725 12.1942 33.1728 14.3527 31.0893ZM16.5416 13.8527C16.5416 15.0616 15.5616 16.0416 14.3527 16.0416V22.0416C18.8753 22.0416 22.5416 18.3753 22.5416 13.8527H16.5416ZM14.3527 11.6638C15.5616 11.6638 16.5416 12.6438 16.5416 13.8527H22.5416C22.5416 9.33007 18.8753 5.66377 14.3527 5.66377V11.6638ZM12.1638 13.8527C12.1638 12.6438 13.1438 11.6638 14.3527 11.6638V5.66377C9.83007 5.66377 6.16377 9.33007 6.16377 13.8527H12.1638ZM14.3527 16.0416C13.1438 16.0416 12.1638 15.0616 12.1638 13.8527H6.16377C6.16377 18.3753 9.83007 22.0416 14.3527 22.0416V16.0416Z" fill="#2F80ED" mask="url(#path-2-outside-1)"/>
</svg>
