<svg width="31" height="34" viewBox="0 0 31 34" fill="none" xmlns="http://www.w3.org/2000/svg">
<mask id="path-1-inside-1" fill="white">
<rect x="0.00195312" y="0.653809" width="30" height="33" rx="2"/>
</mask>
<rect x="0.00195312" y="0.653809" width="30" height="33" rx="2" stroke="#2F80ED" stroke-width="6" mask="url(#path-1-inside-1)"/>
<rect x="11.002" y="9.65381" width="8" height="7" rx="1" stroke="#2F80ED" stroke-width="2"/>
<mask id="path-3-inside-2" fill="white">
<path d="M12.002 16.5073H18.149L15.7826 18.8738C15.3921 19.2643 14.7589 19.2643 14.3684 18.8738L12.002 16.5073Z"/>
</mask>
<path d="M12.002 16.5073V13.5073H4.75931L9.88063 18.6286L12.002 16.5073ZM18.149 16.5073L20.2704 18.6286L25.3917 13.5073L18.149 13.5073V16.5073ZM16.0277 14.386L13.6613 16.7524L17.9039 20.9951L20.2704 18.6286L16.0277 14.386ZM16.4897 16.7524L14.1233 14.386L9.88063 18.6286L12.2471 20.9951L16.4897 16.7524ZM12.002 19.5073H18.149V13.5073H12.002V19.5073ZM13.6613 16.7524C14.4423 15.9714 15.7087 15.9714 16.4897 16.7524L12.2471 20.9951C13.8092 22.5572 16.3418 22.5572 17.9039 20.9951L13.6613 16.7524Z" fill="#2F80ED" mask="url(#path-3-inside-2)"/>
<rect x="7.50195" y="21.1538" width="15" height="1" rx="0.5" stroke="#2F80ED"/>
<rect x="11.502" y="25.1538" width="7" height="1" rx="0.5" stroke="#2F80ED"/>
</svg>
