<?xml version="1.0" encoding="utf-8"?>
<!-- Generator: Adobe Illustrator 23.0.1, SVG Export Plug-In . SVG Version: 6.00 Build 0)  -->
<svg version="1.1" id="Слой_1" xmlns="http://www.w3.org/2000/svg" xmlns:xlink="http://www.w3.org/1999/xlink" x="0px" y="0px"
	 viewBox="0 0 53.78 64" style="enable-background:new 0 0 53.78 64;" xml:space="preserve">
<style type="text/css">
	.st0{fill:url(#SVGID_1_);}
</style>
<linearGradient id="SVGID_1_" gradientUnits="userSpaceOnUse" x1="11.1534" y1="0.7678" x2="38.7161" y2="62.0978">
	<stop  offset="0" style="stop-color:#EB5857"/>
	<stop  offset="1" style="stop-color:#EB5D59"/>
</linearGradient>
<path class="st0" d="M40.91,31.73c4.14,3.21,6.21,7.76,6.21,13.63c0,3.6-0.83,6.8-2.47,9.58c-1.65,2.79-4.13,5-7.43,6.62
	s-7.35,2.43-12.15,2.43c-4.56,0-8.84-0.78-12.83-2.34c-3.99-1.56-7.1-3.6-9.31-6.12l2.34-3.51c1.98,2.28,4.72,4.14,8.23,5.58
	c3.51,1.44,7.33,2.16,11.48,2.16c5.64,0,9.97-1.29,13-3.87c3.03-2.58,4.54-6.03,4.54-10.35c0-4.74-1.73-8.34-5.17-10.8
	c-3.45-2.46-9.26-3.69-17.42-3.69H7.16l3.33-30.51h33.39v4.14H14.36l-2.43,22.23h9C30.11,26.91,36.77,28.52,40.91,31.73z"/>
</svg>
