<?xml version="1.0" encoding="utf-8"?>
<!-- Generator: Adobe Illustrator 23.0.1, SVG Export Plug-In . SVG Version: 6.00 Build 0)  -->
<svg version="1.1" id="Слой_1" xmlns="http://www.w3.org/2000/svg" xmlns:xlink="http://www.w3.org/1999/xlink" x="0px" y="0px"
	 viewBox="0 0 53.78 64" style="enable-background:new 0 0 53.78 64;" xml:space="preserve">
<style type="text/css">
	.st0{fill:url(#SVGID_1_);}
</style>
<linearGradient id="SVGID_1_" gradientUnits="userSpaceOnUse" x1="8.6122" y1="3.6117" x2="37.5293" y2="67.9552">
	<stop  offset="0" style="stop-color:#F8B477"/>
	<stop  offset="1" style="stop-color:#FDCD7F"/>
</linearGradient>
<path class="st0" d="M47.35,59.4v4.14H4.06V60.3L30.7,33.84c3.48-3.48,5.83-6.46,7.07-8.95c1.23-2.49,1.84-5.05,1.84-7.7
	c0-4.02-1.37-7.17-4.09-9.45c-2.73-2.28-6.68-3.42-11.83-3.42c-3.96,0-7.43,0.6-10.4,1.8c-2.97,1.2-5.54,3.03-7.69,5.49L2.35,8.73
	c2.4-2.76,5.44-4.89,9.14-6.39c3.69-1.5,7.87-2.25,12.55-2.25c6.18,0,11.1,1.5,14.76,4.5c3.66,3,5.49,7.05,5.49,12.15
	c0,3.24-0.72,6.33-2.16,9.27c-1.44,2.94-4.14,6.36-8.1,10.26L10.81,59.4H47.35z"/>
</svg>
