<?xml version="1.0" encoding="utf-8"?>
<!-- Generator: Adobe Illustrator 23.0.1, SVG Export Plug-In . SVG Version: 6.00 Build 0)  -->
<svg version="1.1" id="Слой_1" xmlns="http://www.w3.org/2000/svg" xmlns:xlink="http://www.w3.org/1999/xlink" x="0px" y="0px"
	 viewBox="0 0 53.78 64" style="enable-background:new 0 0 53.78 64;" xml:space="preserve">
<style type="text/css">
	.st0{fill:url(#SVGID_1_);}
</style>
<linearGradient id="SVGID_1_" gradientUnits="userSpaceOnUse" x1="9.2853" y1="-1.7873" x2="37.4965" y2="60.9854">
	<stop  offset="0" style="stop-color:#ED6E60"/>
	<stop  offset="1" style="stop-color:#F18A68"/>
</linearGradient>
<path class="st0" d="M40.6,33.08c3.63,3.21,5.45,7.46,5.45,12.73c0,3.54-0.84,6.68-2.52,9.41c-1.68,2.73-4.19,4.88-7.52,6.43
	c-3.33,1.56-7.33,2.34-12.01,2.34c-4.56,0-8.85-0.77-12.87-2.3c-4.02-1.53-7.14-3.58-9.36-6.16l2.34-3.51
	c2.04,2.28,4.82,4.14,8.33,5.58c3.51,1.44,7.36,2.16,11.56,2.16c5.58,0,9.87-1.24,12.87-3.74c3-2.49,4.5-5.89,4.5-10.21
	c0-4.38-1.53-7.8-4.59-10.26c-3.06-2.46-7.65-3.69-13.77-3.69h-3.96v-3.33L37.67,4.68H4.1V0.54h39.51v3.24l-18.9,24.21
	C31.67,28.17,36.97,29.87,40.6,33.08z"/>
</svg>
