<?xml version="1.0" encoding="utf-8"?>
<!-- Generator: Adobe Illustrator 23.0.1, SVG Export Plug-In . SVG Version: 6.00 Build 0)  -->
<svg version="1.1" id="Слой_1" xmlns="http://www.w3.org/2000/svg" xmlns:xlink="http://www.w3.org/1999/xlink" x="0px" y="0px"
	 viewBox="0 0 16 16" style="enable-background:new 0 0 16 16;" xml:space="preserve">
<style type="text/css">
	.st0{fill:#FFFFFF;}
	.st1{fill:#41515A;}
</style>
<circle class="st0" cx="8" cy="8" r="8"/>
<path class="st1" d="M7.8,8.7c0.1-0.2,0.2-0.5,0.4-0.6c0.2-0.2,0.4-0.4,0.6-0.6C9.1,7.2,9.4,7,9.5,6.8C9.7,6.6,9.8,6.3,9.8,6
	c0-0.4-0.2-0.7-0.5-0.9C9,4.9,8.6,4.7,8,4.7c-0.9,0-1.7,0.3-2.1,0.9L5,5.1c0.3-0.4,0.8-0.8,1.3-1s1.1-0.3,1.8-0.3
	c0.9,0,1.6,0.2,2.1,0.6C10.7,4.7,11,5.2,11,5.9c0,0.3-0.1,0.6-0.2,0.9c-0.1,0.3-0.2,0.5-0.4,0.6S10.1,7.7,9.8,8
	C9.5,8.2,9.2,8.5,9.1,8.7C8.9,9,8.9,9.2,8.9,9.6H7.7C7.7,9.2,7.7,9,7.8,8.7z M7.7,12.1c-0.1-0.1-0.2-0.3-0.2-0.5
	c0-0.2,0.1-0.4,0.2-0.5c0.1-0.1,0.3-0.2,0.6-0.2c0.2,0,0.4,0.1,0.6,0.2C9,11.1,9,11.3,9,11.5c0,0.2-0.1,0.4-0.2,0.5
	s-0.3,0.2-0.5,0.2C8,12.3,7.9,12.2,7.7,12.1z"/>
</svg>
