<svg width="15" height="8" viewBox="0 0 15 8" fill="none" xmlns="http://www.w3.org/2000/svg">
<mask id="path-1-inside-1" fill="white">
<path d="M13.08 0.353553C13.2753 0.158291 13.5919 0.158291 13.7871 0.353553C13.9824 0.548816 13.9824 0.865398 13.7871 1.06066L7.42319 7.42462C7.22792 7.61988 6.91134 7.61988 6.71608 7.42462C6.52082 7.22936 6.52082 6.91278 6.71608 6.71751L13.08 0.353553Z"/>
</mask>
<path d="M12.3729 -0.353553L6.00897 6.01041L8.8374 8.83883L15.2014 2.47487L12.3729 -0.353553ZM8.13029 8.13173L14.4943 1.76777L11.6658 -1.06066L5.30187 5.3033L8.13029 8.13173ZM8.13029 6.01041C8.71608 6.59619 8.71608 7.54594 8.13029 8.13173L5.30187 5.3033C4.32556 6.27961 4.32556 7.86252 5.30187 8.83883L8.13029 6.01041ZM6.00897 6.01041C6.59476 5.42462 7.54451 5.42462 8.13029 6.01041L5.30187 8.83883C6.27818 9.81515 7.86109 9.81514 8.8374 8.83883L6.00897 6.01041ZM12.3729 1.76777C11.7871 1.18198 11.7871 0.232233 12.3729 -0.353553L15.2014 2.47487C16.1777 1.49856 16.1777 -0.0843494 15.2014 -1.06066L12.3729 1.76777ZM15.2014 -1.06066C14.225 -2.03697 12.6421 -2.03697 11.6658 -1.06066L14.4943 1.76777C13.9085 2.35355 12.9587 2.35355 12.3729 1.76777L15.2014 -1.06066Z" fill="#2F80ED" mask="url(#path-1-inside-1)"/>
<mask id="path-3-inside-2" fill="white">
<path d="M1.06058 0.353553C0.865323 0.158291 0.54874 0.158291 0.353478 0.353553C0.158216 0.548816 0.158216 0.865398 0.353478 1.06066L6.71744 7.42462C6.9127 7.61988 7.22928 7.61988 7.42455 7.42462C7.61981 7.22936 7.61981 6.91278 7.42455 6.71751L1.06058 0.353553Z"/>
</mask>
<path d="M1.76769 -0.353553L8.13165 6.01041L5.30323 8.83883L-1.06074 2.47487L1.76769 -0.353553ZM6.01033 8.13173L-0.353629 1.76777L2.4748 -1.06066L8.83876 5.3033L6.01033 8.13173ZM6.01033 6.01041C5.42455 6.59619 5.42455 7.54594 6.01033 8.13173L8.83876 5.3033C9.81507 6.27961 9.81507 7.86252 8.83876 8.83883L6.01033 6.01041ZM8.13165 6.01041C7.54587 5.42462 6.59612 5.42462 6.01033 6.01041L8.83876 8.83883C7.86245 9.81515 6.27954 9.81514 5.30323 8.83883L8.13165 6.01041ZM1.76769 1.76777C2.35348 1.18198 2.35348 0.232233 1.76769 -0.353553L-1.06074 2.47487C-2.03705 1.49856 -2.03705 -0.0843494 -1.06074 -1.06066L1.76769 1.76777ZM-1.06074 -1.06066C-0.0844245 -2.03697 1.49849 -2.03697 2.4748 -1.06066L-0.353629 1.76777C0.232157 2.35355 1.1819 2.35355 1.76769 1.76777L-1.06074 -1.06066Z" fill="#2F80ED" mask="url(#path-3-inside-2)"/>
</svg>
