<?xml version="1.0" encoding="utf-8"?>
<!-- Generator: Adobe Illustrator 23.0.1, SVG Export Plug-In . SVG Version: 6.00 Build 0)  -->
<svg version="1.1" id="Слой_1" xmlns="http://www.w3.org/2000/svg" xmlns:xlink="http://www.w3.org/1999/xlink" x="0px" y="0px"
	 viewBox="0 0 100 100" style="enable-background:new 0 0 100 100;" xml:space="preserve">
<style type="text/css">
	.st0{fill:#41515A;}
</style>
<path class="st0" d="M74.9,34.5c-1.8,0.8-3.8,1.4-5.9,1.6c2.1-1.3,3.8-3.3,4.5-5.7c-2,1.2-4.2,2-6.5,2.5c-1.9-2-4.5-3.2-7.5-3.2
	c-5.7,0-10.3,4.6-10.3,10.3c0,0.8,0.1,1.6,0.3,2.3c-8.5-0.4-16.1-4.5-21.2-10.7c-0.9,1.5-1.4,3.3-1.4,5.2c0,3.6,1.8,6.7,4.6,8.5
	C30,45.2,28.3,44.8,27,44v0.1c0,5,3.5,9.1,8.2,10.1c-0.9,0.2-1.8,0.4-2.7,0.4c-0.7,0-1.3-0.1-1.9-0.2c1.3,4.1,5.1,7,9.6,7.1
	c-3.5,2.8-7.9,4.4-12.7,4.4c-0.8,0-1.6,0-2.4-0.1c4.5,2.9,9.9,4.6,15.7,4.6c18.9,0,29.2-15.6,29.2-29.2c0-0.4,0-0.9,0-1.3
	C71.8,38.4,73.5,36.6,74.9,34.5z"/>
</svg>
