<?xml version="1.0" encoding="utf-8"?>
<!-- Generator: Adobe Illustrator 23.0.1, SVG Export Plug-In . SVG Version: 6.00 Build 0)  -->
<svg version="1.1" id="Слой_1" xmlns="http://www.w3.org/2000/svg" xmlns:xlink="http://www.w3.org/1999/xlink" x="0px" y="0px"
	 viewBox="0 0 100 100" style="enable-background:new 0 0 100 100;" xml:space="preserve">
<style type="text/css">
	.st0{fill-rule:evenodd;clip-rule:evenodd;fill:#41515A;}
</style>
<path class="st0" d="M73.7,33.6c-0.6-1.6-1.5-3-2.9-4.4S68,27,66.4,26.3c-1.6-0.6-3.4-1-6.1-1.2C57.7,25,56.8,25,50,25
	s-7.7,0-10.3,0.2c-2.7,0.1-4.5,0.5-6.1,1.2c-1.6,0.6-3,1.5-4.4,2.9S27,32,26.3,33.6c-0.6,1.6-1,3.4-1.2,6.1C25,42.3,25,43.2,25,50
	s0,7.7,0.2,10.3c0.1,2.7,0.5,4.5,1.2,6.1c0.6,1.6,1.5,3,2.9,4.4s2.8,2.2,4.4,2.9c1.6,0.6,3.4,1,6.1,1.2C42.3,75,43.2,75,50,75
	s7.7,0,10.3-0.2c2.7-0.1,4.5-0.5,6.1-1.2c1.6-0.6,3-1.5,4.4-2.9s2.2-2.8,2.9-4.4c0.6-1.6,1-3.4,1.2-6.1C75,57.7,75,56.8,75,50
	s0-7.7-0.2-10.3C74.7,37,74.3,35.2,73.7,33.6z M70.3,60.1c-0.1,2.4-0.5,3.8-0.9,4.6c-0.4,1.2-1,2-1.9,2.9s-1.7,1.4-2.9,1.9
	c-0.9,0.3-2.2,0.8-4.6,0.9c-2.6,0.1-3.4,0.2-10.1,0.2s-7.5,0-10.1-0.2c-2.4-0.1-3.8-0.5-4.6-0.9c-1.2-0.4-2-1-2.9-1.9
	c-0.9-0.9-1.4-1.7-1.9-2.9c-0.3-0.9-0.8-2.2-0.9-4.6c-0.1-2.6-0.2-3.4-0.2-10.1s0-7.5,0.2-10.1c0.1-2.4,0.5-3.8,0.9-4.6
	c0.4-1.2,1-2,1.9-2.9c0.9-0.9,1.7-1.4,2.9-1.9c0.9-0.3,2.2-0.8,4.6-0.9c2.6-0.1,3.4-0.2,10.1-0.2s7.5,0,10.1,0.2
	c2.4,0.1,3.8,0.5,4.6,0.9c1.2,0.4,2,1,2.9,1.9c0.9,0.9,1.4,1.7,1.9,2.9c0.3,0.9,0.8,2.2,0.9,4.6c0.1,2.6,0.2,3.4,0.2,10.1
	S70.5,57.5,70.3,60.1z M50,37.2c-7.1,0-12.8,5.8-12.8,12.8S42.9,62.8,50,62.8S62.8,57.1,62.8,50S57.1,37.2,50,37.2z M50,58.3
	c-4.6,0-8.3-3.7-8.3-8.3s3.7-8.3,8.3-8.3s8.3,3.7,8.3,8.3S54.6,58.3,50,58.3z M63.3,33.7c1.7,0,3,1.3,3,3s-1.3,3-3,3s-3-1.3-3-3
	C60.3,35,61.7,33.7,63.3,33.7z"/>
</svg>
