<?xml version="1.0" encoding="utf-8"?>
<!-- Generator: Adobe Illustrator 23.0.1, SVG Export Plug-In . SVG Version: 6.00 Build 0)  -->
<svg version="1.1" id="Слой_1" xmlns="http://www.w3.org/2000/svg" xmlns:xlink="http://www.w3.org/1999/xlink" x="0px" y="0px"
	 viewBox="0 0 100 100" style="enable-background:new 0 0 100 100;" xml:space="preserve">
<style type="text/css">
	.st0{fill:#41515A;}
</style>
<path class="st0" d="M75,37.7c0.4,1.1-0.9,3.7-3.9,7.7c-0.4,0.6-1,1.3-1.7,2.2c-1.4,1.7-2.1,2.9-2.3,3.4c-0.3,0.7-0.2,1.4,0.4,2.1
	c0.3,0.4,1,1.1,2.1,2.1l0,0l0,0l0,0l0.1,0.1c2.4,2.3,4.1,4.2,5,5.8c0.1,0.1,0.1,0.2,0.2,0.3s0.1,0.4,0.2,0.7s0.1,0.6,0,0.9
	c-0.1,0.3-0.3,0.5-0.7,0.7C74,63.9,73.5,64,72.9,64l-6.7,0.1c-0.4,0.1-0.9,0-1.5-0.1c-0.6-0.2-1-0.4-1.4-0.6l-0.5-0.3
	c-0.5-0.4-1.1-0.9-1.8-1.7c-0.7-0.7-1.3-1.4-1.8-2s-1-1.1-1.6-1.5s-1.1-0.5-1.5-0.4c-0.1,0-0.1,0-0.2,0.1c-0.1,0-0.2,0.2-0.4,0.4
	s-0.4,0.5-0.6,0.8c-0.2,0.3-0.3,0.8-0.4,1.4s-0.2,1.3-0.2,2c0,0.3,0,0.5-0.1,0.7s-0.1,0.4-0.2,0.5l-0.1,0.1
	c-0.3,0.3-0.8,0.5-1.4,0.6h-3c-1.2,0.1-2.5-0.1-3.8-0.4c-1.3-0.4-2.4-0.8-3.4-1.4c-1-0.6-1.9-1.1-2.7-1.7s-1.4-1.1-1.8-1.5l-0.7-0.6
	c-0.2-0.2-0.4-0.4-0.7-0.8c-0.3-0.3-0.9-1.1-1.9-2.4c-0.9-1.2-1.9-2.5-2.8-3.9c-0.9-1.4-2-3.2-3.2-5.5s-2.4-4.6-3.4-7.1
	c-0.1-0.3-0.2-0.5-0.2-0.7s0-0.3,0.1-0.4l0.1-0.2c0.3-0.3,0.8-0.5,1.5-0.5l7.1-0.1c0.2,0,0.4,0.1,0.6,0.2c0.2,0.1,0.3,0.2,0.4,0.2
	l0.1,0.1c0.3,0.2,0.5,0.5,0.6,0.8c0.3,0.9,0.7,1.8,1.2,2.7s0.8,1.6,1.1,2.1l0.4,0.8c0.5,1,1,1.9,1.5,2.7s0.9,1.4,1.3,1.8
	c0.4,0.4,0.7,0.8,1.1,1s0.6,0.4,0.9,0.4c0.2,0,0.5,0,0.7-0.1l0.1-0.1c0.1-0.1,0.2-0.3,0.3-0.6s0.3-0.7,0.4-1.2
	c0.1-0.5,0.2-1.2,0.2-2.1c0.1-0.9,0.1-2,0-3.3c0-0.7-0.1-1.3-0.2-1.9s-0.2-1-0.4-1.2l-0.2-0.3c-0.4-0.6-1.2-1-2.2-1.1
	c-0.2,0-0.2-0.2,0.1-0.6c0.3-0.3,0.6-0.6,1-0.8c0.9-0.5,3-0.7,6.2-0.6c1.4,0,2.6,0.1,3.5,0.3c0.3,0.1,0.6,0.2,0.9,0.4
	c0.2,0.1,0.4,0.4,0.5,0.6s0.2,0.5,0.3,0.8s0.1,0.7,0.1,1.2s0,1,0,1.4c0,0.5,0,1.1-0.1,1.8s0,1.5,0,2.1c0,0.2,0,0.6,0,1.1s0,1,0,1.2
	c0,0.3,0,0.6,0.1,1.1s0.2,0.7,0.3,1s0.3,0.5,0.6,0.6c0.1,0,0.3,0.1,0.4,0.1s0.4-0.1,0.7-0.3s0.6-0.5,1-0.9s0.8-1,1.4-1.7
	s1.1-1.7,1.8-2.8c1-1.8,2-3.8,2.8-5.9c0.1-0.2,0.2-0.3,0.3-0.5s0.2-0.2,0.3-0.3l0.1-0.1l0.1-0.1l0.3-0.1h0.5l7.5-0.1
	c0.8,0.2,1.3,0.2,1.8,0.3c0.4,0.1,0.7,0.3,0.8,0.4L75,37.7z"/>
</svg>
