<svg width="651" height="96" viewBox="0 0 651 96" fill="none" xmlns="http://www.w3.org/2000/svg">
<path d="M57.4372 78.9099H23.6812L17.2416 94.7341H0L32.4058 20.8879H49.0242L81.5339 94.7341H63.8768L57.4372 78.9099ZM52.1401 65.9341L40.6111 37.6615L29.0821 65.9341H52.1401Z" fill="white"/>
<path d="M143.627 56.2286C148.059 57.5648 151.452 59.7451 153.806 62.7692C156.16 65.7934 157.337 69.5209 157.337 73.9517C157.337 80.4923 154.879 85.5912 149.963 89.2484C145.116 92.9055 138.157 94.7341 129.086 94.7341H93.2527V20.8879H127.113C135.56 20.8879 142.138 22.5407 146.847 25.8462C151.555 29.1517 153.91 33.8637 153.91 39.9824C153.91 43.6396 153.01 46.8747 151.209 49.6879C149.409 52.4308 146.882 54.611 143.627 56.2286ZM109.975 51.4813H125.659C129.328 51.4813 132.098 50.7429 133.968 49.2659C135.837 47.7187 136.772 45.4681 136.772 42.5143C136.772 39.6308 135.803 37.4154 133.864 35.8681C131.994 34.3209 129.259 33.5473 125.659 33.5473H109.975V51.4813ZM128.463 82.0747C136.357 82.0747 140.303 78.9099 140.303 72.5802C140.303 66.4615 136.357 63.4022 128.463 63.4022H109.975V82.0747H128.463Z" fill="white"/>
<path d="M227.275 34.8132H204.009V94.7341H187.391V34.8132H164.229V20.8879H227.275V34.8132Z" fill="white"/>
<path d="M273.594 96C266.046 96 259.226 94.3473 253.132 91.0418C247.108 87.7363 242.365 83.2 238.903 77.433C235.51 71.5956 233.813 65.0549 233.813 57.811C233.813 50.567 235.51 44.0615 238.903 38.2945C242.365 32.4571 247.108 27.8857 253.132 24.5802C259.226 21.2747 266.046 19.622 273.594 19.622C281.141 19.622 287.927 21.2747 293.951 24.5802C299.975 27.8857 304.718 32.4571 308.181 38.2945C311.643 44.0615 313.374 50.567 313.374 57.811C313.374 65.0549 311.643 71.5956 308.181 77.433C304.718 83.2 299.975 87.7363 293.951 91.0418C287.927 94.3473 281.141 96 273.594 96ZM273.594 81.4418C277.887 81.4418 281.764 80.4571 285.226 78.4879C288.689 76.4483 291.389 73.6352 293.328 70.0483C295.336 66.4615 296.34 62.3824 296.34 57.811C296.34 53.2396 295.336 49.1604 293.328 45.5736C291.389 41.9868 288.689 39.2088 285.226 37.2396C281.764 35.2 277.887 34.1802 273.594 34.1802C269.301 34.1802 265.423 35.2 261.961 37.2396C258.499 39.2088 255.763 41.9868 253.755 45.5736C251.817 49.1604 250.847 53.2396 250.847 57.811C250.847 62.3824 251.817 66.4615 253.755 70.0483C255.763 73.6352 258.499 76.4483 261.961 78.4879C265.423 80.4571 269.301 81.4418 273.594 81.4418Z" fill="white"/>
<path d="M367.723 56.2286C371.946 57.7055 375.236 60.0264 377.59 63.1912C380.013 66.2857 381.225 69.9077 381.225 74.0571C381.225 78.5582 379.771 82.4615 376.863 85.767C373.955 89.0725 370.008 91.6044 365.022 93.3626C360.106 95.1209 354.705 96 348.819 96C343.834 96 338.848 95.367 333.863 94.1011C328.946 92.8352 324.273 90.9011 319.841 88.2989L325.034 76.0615C328.219 78.0308 331.716 79.5429 335.525 80.5978C339.402 81.5824 343.176 82.0747 346.846 82.0747C351.831 82.0747 355.951 81.1604 359.206 79.3319C362.529 77.5033 364.191 74.9363 364.191 71.6308C364.191 68.8879 363.049 66.8132 360.764 65.4066C358.548 64 355.501 63.2967 351.624 63.2967H333.863V50.4264H350.377C353.77 50.4264 356.401 49.7231 358.271 48.3165C360.21 46.9099 361.179 44.9758 361.179 42.5143C361.179 39.6308 359.794 37.3802 357.025 35.7626C354.324 34.1451 350.827 33.3363 346.534 33.3363C343.349 33.3363 340.06 33.7934 336.667 34.7077C333.274 35.5517 330.054 36.8528 327.008 38.611L321.918 25.3187C329.604 21.3099 337.913 19.3055 346.846 19.3055C352.524 19.3055 357.752 20.1495 362.529 21.8374C367.307 23.5253 371.116 25.9868 373.955 29.222C376.794 32.4571 378.213 36.2198 378.213 40.5099C378.213 44.0264 377.278 47.156 375.409 49.8989C373.539 52.6418 370.977 54.7517 367.723 56.2286Z" fill="white"/>
<path d="M445.855 78.9099H412.099L405.659 94.7341H388.418L420.824 20.8879H437.442L469.952 94.7341H452.295L445.855 78.9099ZM440.558 65.9341L429.029 37.6615L417.5 65.9341H440.558Z" fill="white"/>
<path d="M481.67 20.8879H498.393V68.9934L533.083 20.8879H548.871V94.7341H532.253V46.7341L497.562 94.7341H481.67V20.8879ZM515.219 16.1407C501.924 16.1407 495.207 10.7604 495.069 0H506.598C506.736 5.13407 509.61 7.7011 515.219 7.7011C517.988 7.7011 520.1 7.06813 521.555 5.8022C523.009 4.46593 523.77 2.53187 523.84 0H535.369C535.299 5.27473 533.603 9.28352 530.279 12.0264C526.955 14.7692 521.935 16.1407 515.219 16.1407Z" fill="white"/>
<path d="M635.213 94.7341L635.109 50.5319L613.713 86.9275H606.234L584.838 51.3758V94.7341H569.051V20.8879H582.969L610.181 66.778L636.978 20.8879H650.896L651 94.7341H635.213Z" fill="white"/>
</svg>
